<svg width="500" height="500" fill="none" xmlns="http://www.w3.org/2000/svg"><g clip-path="url(#a)"><g filter="url(#b)"><rect x="44" y="27" width="355.9" height="362.3" rx="5" fill="#fff"/></g><circle cx="84.4" cy="62.7" r="20.4" fill="url(#c)"/><rect x="121.2" y="51.2" width="136.5" height="7.7" rx="3.8" fill="#868E96"/><rect x="121.2" y="66.5" width="223.2" height="7.7" rx="3.8" fill="#E9ECEF"/><circle cx="84.4" cy="135.4" r="20.4" fill="url(#d)"/><rect x="121.2" y="123.9" width="95.7" height="7.7" rx="3.8" fill="#868E96"/><rect x="121.2" y="139.2" width="179.9" height="7.7" rx="3.8" fill="#E9ECEF"/><circle cx="84.4" cy="208.1" r="20.4" fill="url(#e)"/><rect x="121.2" y="196.6" width="172.2" height="7.7" rx="3.8" fill="#868E96"/><rect x="121.2" y="212" width="118.6" height="7.7" rx="3.8" fill="#E9ECEF"/><circle cx="84.4" cy="280.8" r="20.4" fill="url(#f)"/><rect x="121.2" y="269.4" width="136.5" height="7.7" rx="3.8" fill="#868E96"/><rect x="121.2" y="284.7" width="179.9" height="7.7" rx="3.8" fill="#E9ECEF"/><circle cx="84.4" cy="353.5" r="20.4" fill="url(#g)"/><rect x="121.2" y="342.1" width="136.5" height="7.7" rx="3.8" fill="#868E96"/><rect x="121.2" y="357.4" width="179.9" height="7.7" rx="3.8" fill="#E9ECEF"/><path fill="#E9ECEF" d="M44 98.4h355.9v1.3H44zm0 72.7h355.9v1.3H44zm0 72.7h355.9v1.3H44zm0 72.7h355.9v1.3H44z"/><g filter="url(#h)"><rect x="214.9" y="288.5" width="241.1" height="156.9" rx="5" fill="url(#i)"/></g><path d="m255.4 418.6-20 6.4h200.2v-69l-20 31.3-20-5-20 18.5-20.1-27-20 22-20-22-20 39.1-20.1-12-20 17.7z" fill="url(#j)"/><path d="m235.3 425 19.9-6.4a1 1 0 0 0 .3-.2l19.3-17a1 1 0 0 1 1.2-.2l18.5 11.1a1 1 0 0 0 1.4-.4l18.9-36.8a1 1 0 0 1 1.6-.2l18.3 20.1a1 1 0 0 0 1.5 0l18.5-20.3a1 1 0 0 1 1.5.1L375 400a1 1 0 0 0 1.4.2l18.8-17.4a1 1 0 0 1 1-.2l18.8 4.7a1 1 0 0 0 1-.5l19.7-30.6" stroke="#9775FA" stroke-width="2" stroke-linecap="round"/><rect x="235.3" y="308.9" width="100.8" height="9" rx="4.5" fill="#5535B3" fill-opacity=".7"/><rect x="235.3" y="329.3" width="57.4" height="8" rx="4" fill="#9775FA" fill-opacity=".4"/><rect x="378.2" y="308.9" width="57.4" height="9" rx="4.5" fill="#5535B3" fill-opacity=".7"/></g><defs><linearGradient id="c" x1="72.8" y1="77.6" x2="93.7" y2="50" gradientUnits="userSpaceOnUse"><stop stop-color="#FFA8A8"/><stop offset="1" stop-color="#FFD8A8"/></linearGradient><linearGradient id="d" x1="72.8" y1="150.3" x2="93.7" y2="122.7" gradientUnits="userSpaceOnUse"><stop stop-color="#F3D9FA"/><stop offset="1" stop-color="#FCC2D7"/></linearGradient><linearGradient id="e" x1="72.8" y1="223" x2="93.7" y2="195.4" gradientUnits="userSpaceOnUse"><stop stop-color="#E5DBFF"/><stop offset="1" stop-color="#EEBEFA"/></linearGradient><linearGradient id="f" x1="72.8" y1="295.7" x2="93.7" y2="268.1" gradientUnits="userSpaceOnUse"><stop stop-color="#DBE4FF"/><stop offset="1" stop-color="#D0BFFF"/></linearGradient><linearGradient id="g" x1="72.8" y1="368.4" x2="93.7" y2="340.9" gradientUnits="userSpaceOnUse"><stop stop-color="#C5F6FA"/><stop offset="1" stop-color="#A5D8FF"/></linearGradient><linearGradient id="i" x1="317.6" y1="445.4" x2="316.6" y2="288.5" gradientUnits="userSpaceOnUse"><stop stop-color="#F3F0FF"/><stop offset="1" stop-color="#E5DBFF"/></linearGradient><linearGradient id="j" x1="335.5" y1="356.1" x2="335.5" y2="425" gradientUnits="userSpaceOnUse"><stop stop-color="#D0BFFF"/><stop offset="1" stop-color="#D0BFFF" stop-opacity="0"/></linearGradient><filter id="b" x="-6" y="-10" width="455.9" height="462.3" filterUnits="userSpaceOnUse" color-interpolation-filters="sRGB"><feFlood flood-opacity="0" result="BackgroundImageFix"/><feColorMatrix in="SourceAlpha" values="0 0 0 0 0 0 0 0 0 0 0 0 0 0 0 0 0 0 127 0" result="hardAlpha"/><feOffset dy="13"/><feGaussianBlur stdDeviation="25"/><feComposite in2="hardAlpha" operator="out"/><feColorMatrix values="0 0 0 0 0.129412 0 0 0 0 0.145098 0 0 0 0 0.160784 0 0 0 0.19 0"/><feBlend in2="BackgroundImageFix" result="effect1_dropShadow_5:9"/><feColorMatrix in="SourceAlpha" values="0 0 0 0 0 0 0 0 0 0 0 0 0 0 0 0 0 0 127 0" result="hardAlpha"/><feOffset dy="1"/><feGaussianBlur stdDeviation="1.5"/><feComposite in2="hardAlpha" operator="out"/><feColorMatrix values="0 0 0 0 0 0 0 0 0 0 0 0 0 0 0 0 0 0 0.02 0"/><feBlend in2="effect1_dropShadow_5:9" result="effect2_dropShadow_5:9"/><feBlend in="SourceGraphic" in2="effect2_dropShadow_5:9" result="shape"/></filter><filter id="h" x="174.9" y="252.5" width="321.1" height="236.9" filterUnits="userSpaceOnUse" color-interpolation-filters="sRGB"><feFlood flood-opacity="0" result="BackgroundImageFix"/><feColorMatrix in="SourceAlpha" values="0 0 0 0 0 0 0 0 0 0 0 0 0 0 0 0 0 0 127 0" result="hardAlpha"/><feOffset dy="4"/><feGaussianBlur stdDeviation="20"/><feComposite in2="hardAlpha" operator="out"/><feColorMatrix values="0 0 0 0 0.129412 0 0 0 0 0.145098 0 0 0 0 0.160784 0 0 0 0.22 0"/><feBlend in2="BackgroundImageFix" result="effect1_dropShadow_5:9"/><feColorMatrix in="SourceAlpha" values="0 0 0 0 0 0 0 0 0 0 0 0 0 0 0 0 0 0 127 0" result="hardAlpha"/><feOffset dy="1"/><feGaussianBlur stdDeviation="1.5"/><feComposite in2="hardAlpha" operator="out"/><feColorMatrix values="0 0 0 0 0 0 0 0 0 0 0 0 0 0 0 0 0 0 0.04 0"/><feBlend in2="effect1_dropShadow_5:9" result="effect2_dropShadow_5:9"/><feBlend in="SourceGraphic" in2="effect2_dropShadow_5:9" result="shape"/></filter><clipPath id="a"><path fill="#fff" d="M0 0h500v500H0z"/></clipPath></defs></svg>