<svg width="500" height="500" fill="none" xmlns="http://www.w3.org/2000/svg"><g filter="url(#a)"><rect x="40" y="55" width="420" height="175" rx="4" fill="url(#b)"/></g><rect x="60.2" y="179.1" width="6.4" height="37.1" rx="3.2" fill="#5F3DC4"/><rect x="77.1" y="155.8" width="6.4" height="60.5" rx="3.2" fill="#5F3DC4"/><rect x="94.1" y="150.5" width="6.4" height="65.8" rx="3.2" fill="#5F3DC4"/><rect x="111.1" y="190.8" width="6.4" height="25.5" rx="3.2" fill="#5F3DC4"/><rect x="128" y="155.8" width="6.4" height="60.5" rx="3.2" fill="#5F3DC4"/><rect x="145" y="162.1" width="6.4" height="54.1" rx="3.2" fill="#5F3DC4"/><rect x="162" y="170.6" width="6.4" height="45.6" rx="3.2" fill="#5F3DC4"/><rect x="178.9" y="183.3" width="6.4" height="32.9" rx="3.2" fill="#5F3DC4"/><rect x="195.9" y="170.6" width="6.4" height="45.6" rx="3.2" fill="#5F3DC4"/><rect x="212.9" y="162.1" width="6.4" height="54.1" rx="3.2" fill="#5F3DC4"/><rect x="229.8" y="133.5" width="6.4" height="82.7" rx="3.2" fill="#5F3DC4"/><rect x="246.8" y="119.7" width="6.4" height="96.5" rx="3.2" fill="#5F3DC4"/><rect x="263.8" y="101.7" width="6.4" height="114.5" rx="3.2" fill="#5F3DC4"/><rect x="280.8" y="150.5" width="6.4" height="65.8" rx="3.2" fill="#5F3DC4"/><rect x="297.7" y="172.7" width="6.4" height="43.5" rx="3.2" fill="#5F3DC4"/><rect x="314.7" y="162.1" width="6.4" height="54.1" rx="3.2" fill="#5F3DC4"/><rect x="331.7" y="150.5" width="6.4" height="65.8" rx="3.2" fill="#5F3DC4"/><rect x="348.6" y="133.5" width="6.4" height="82.7" rx="3.2" fill="#5F3DC4"/><rect x="365.6" y="160" width="6.4" height="56.2" rx="3.2" fill="#5F3DC4"/><rect x="382.6" y="168.5" width="6.4" height="47.7" rx="3.2" fill="#5F3DC4"/><rect x="399.5" y="146.2" width="6.4" height="70" rx="3.2" fill="#5F3DC4"/><rect x="416.5" y="140.9" width="6.4" height="75.3" rx="3.2" fill="#5F3DC4"/><rect x="433.5" y="150.5" width="6.4" height="65.8" rx="3.2" fill="#5F3DC4"/><rect x="60.2" y="74.1" width="95.5" height="6.4" rx="3.2" fill="#fff"/><rect x="60.2" y="87.9" width="57.3" height="6.4" rx="3.2" fill="#fff" fill-opacity=".7"/><rect x="270.2" y="262.9" width="189.8" height="181.4" rx="4" fill="#E3FAFC"/><path d="m303 405.6-9.7 30.7a2 2 0 0 0 1.9 2.6h162.3a2 2 0 0 0 2-2V324.2a2 2 0 0 0-.6-1.5l-8.9-8.6a2 2 0 0 0-3.3 1l-10.1 39a2 2 0 0 1-3.5.7l-7.5-9a2 2 0 0 0-3.3.4l-10 19.5a2 2 0 0 1-1.8 1.1h-9.3a2 2 0 0 0-1.9 1.3l-10 25.3a2 2 0 0 1-3.5.4l-8.2-12.7a2 2 0 0 0-3.3 0l-9.1 14.1a2 2 0 0 1-3 .5l-8.7-6.6a2 2 0 0 0-2.6.3l-8.6 9.5a2 2 0 0 1-3.4-.6l-8.3-20.4a2 2 0 0 0-3.8.3l-9.3 38.9a2 2 0 0 1-3.7.5l-7.2-12.4a2 2 0 0 0-3.6.4z" fill="url(#c)"/><rect x="287.1" y="286.2" width="95.5" height="6.4" rx="3.2" fill="#35B6C8"/><rect x="287.1" y="300" width="57.3" height="6.4" rx="3.2" fill="#3BB9CA" fill-opacity=".4"/><rect x="40" y="262.9" width="189.8" height="181.4" rx="4" fill="#F8F9FA"/><circle cx="138.1" cy="353.6" r="57.8" fill="#DEE2E6"/><path d="M196 353.6H138l26.5-51.4a57.8 57.8 0 0 1 31.3 51.4z" fill="#E9ECEF"/><path d="M196 353h-57.4l53.3-21.2a57.1 57.1 0 0 1 4 21.2z" fill="#ADB5BD"/><path d="M196 353h-57.4l36.4 45.1c12.8-10.7 21-27 21-45z" fill="#868E96"/><defs><linearGradient id="b" x1="250" y1="55" x2="250" y2="230" gradientUnits="userSpaceOnUse"><stop stop-color="#845EF7"/><stop offset="1" stop-color="#E5DBFF"/></linearGradient><linearGradient id="c" x1="375.9" y1="311.7" x2="375.9" y2="438.9" gradientUnits="userSpaceOnUse"><stop stop-color="#2FB4C6"/><stop offset="1" stop-color="#15AABF" stop-opacity="0"/></linearGradient><filter id="a" x="20" y="44" width="460" height="215" filterUnits="userSpaceOnUse" color-interpolation-filters="sRGB"><feFlood flood-opacity="0" result="BackgroundImageFix"/><feColorMatrix in="SourceAlpha" values="0 0 0 0 0 0 0 0 0 0 0 0 0 0 0 0 0 0 127 0" result="hardAlpha"/><feOffset dy="9"/><feGaussianBlur stdDeviation="10"/><feComposite in2="hardAlpha" operator="out"/><feColorMatrix values="0 0 0 0 0.129412 0 0 0 0 0.145098 0 0 0 0 0.160784 0 0 0 0.1 0"/><feBlend in2="BackgroundImageFix" result="effect1_dropShadow_7:149"/><feBlend in="SourceGraphic" in2="effect1_dropShadow_7:149" result="shape"/></filter></defs></svg>