<svg width="500" height="500" fill="none" xmlns="http://www.w3.org/2000/svg"><g clip-path="url(#a)"><circle cx="81.9" cy="139.2" r="21.9" fill="url(#b)"/><path d="M94.1 69a9 9 0 0 1 9-9h253.7a9 9 0 0 1 9 9v49a9 9 0 0 1-9 9H94.1V69z" fill="#F1F3F5"/><rect x="111.2" y="72.2" width="223" height="7.3" rx="3" fill="#868E96"/><rect x="111.2" y="89.2" width="176.7" height="7.3" rx="3" fill="#868E96"/><rect x="111.2" y="106.3" width="207.1" height="7.3" rx="3" fill="#868E96"/><circle cx="81.9" cy="297.7" r="21.9" fill="url(#c)"/><path d="M94.1 258a9 9 0 0 1 9-9h253.7a9 9 0 0 1 9 9v18.6a9 9 0 0 1-9 9H94.1V258z" fill="#F1F3F5"/><rect x="111.2" y="263.6" width="176.7" height="7.3" rx="3" fill="#868E96"/><circle cx="417.7" cy="218.7" r="21.9" fill="url(#d)"/><g filter="url(#e)"><path d="M135 179a9 9 0 0 1 9-9h253.7a9 9 0 0 1 9 9v27.6H144a9 9 0 0 1-9-9V179z" fill="#4C6EF5"/></g><rect x="153.3" y="184.6" width="166.9" height="7.3" rx="3.7" fill="#fff"/><g filter="url(#f)"><rect x="60" y="361" width="380.1" height="88.9" rx="5" fill="#fff"/></g><rect x="259.8" y="386.6" width="117" height="36.6" rx="3" fill="#495057"/><rect x="283" y="401.2" width="69.4" height="7.3" rx="3.7" fill="#fff"/><rect x="118.5" y="386.6" width="117" height="36.6" rx="3" fill="#F1F3F5"/><rect x="141.6" y="401.2" width="69.4" height="7.3" rx="3.7" fill="#495057" fill-opacity=".7"/></g><defs><linearGradient id="b" x1="69.5" y1="155.2" x2="92" y2="125.6" gradientUnits="userSpaceOnUse"><stop stop-color="#FFA8A8"/><stop offset="1" stop-color="#FFD8A8"/></linearGradient><linearGradient id="c" x1="69.5" y1="313.7" x2="92" y2="284.1" gradientUnits="userSpaceOnUse"><stop stop-color="#FFA8A8"/><stop offset="1" stop-color="#FFD8A8"/></linearGradient><linearGradient id="d" x1="405.2" y1="234.7" x2="427.7" y2="205.1" gradientUnits="userSpaceOnUse"><stop stop-color="#DBE4FF"/><stop offset="1" stop-color="#D0BFFF"/></linearGradient><filter id="e" x="117" y="157" width="307.7" height="72.5" filterUnits="userSpaceOnUse" color-interpolation-filters="sRGB"><feFlood flood-opacity="0" result="BackgroundImageFix"/><feColorMatrix in="SourceAlpha" values="0 0 0 0 0 0 0 0 0 0 0 0 0 0 0 0 0 0 127 0" result="hardAlpha"/><feOffset dy="5"/><feGaussianBlur stdDeviation="9"/><feComposite in2="hardAlpha" operator="out"/><feColorMatrix values="0 0 0 0 0 0 0 0 0 0 0 0 0 0 0 0 0 0 0.13 0"/><feBlend in2="BackgroundImageFix" result="effect1_dropShadow_7:85"/><feBlend in="SourceGraphic" in2="effect1_dropShadow_7:85" result="shape"/></filter><filter id="f" x="10" y="324" width="480.1" height="188.9" filterUnits="userSpaceOnUse" color-interpolation-filters="sRGB"><feFlood flood-opacity="0" result="BackgroundImageFix"/><feColorMatrix in="SourceAlpha" values="0 0 0 0 0 0 0 0 0 0 0 0 0 0 0 0 0 0 127 0" result="hardAlpha"/><feOffset dy="13"/><feGaussianBlur stdDeviation="25"/><feComposite in2="hardAlpha" operator="out"/><feColorMatrix values="0 0 0 0 0.129412 0 0 0 0 0.145098 0 0 0 0 0.160784 0 0 0 0.19 0"/><feBlend in2="BackgroundImageFix" result="effect1_dropShadow_7:85"/><feColorMatrix in="SourceAlpha" values="0 0 0 0 0 0 0 0 0 0 0 0 0 0 0 0 0 0 127 0" result="hardAlpha"/><feOffset dy="1"/><feGaussianBlur stdDeviation="1.5"/><feComposite in2="hardAlpha" operator="out"/><feColorMatrix values="0 0 0 0 0 0 0 0 0 0 0 0 0 0 0 0 0 0 0.02 0"/><feBlend in2="effect1_dropShadow_7:85" result="effect2_dropShadow_7:85"/><feBlend in="SourceGraphic" in2="effect2_dropShadow_7:85" result="shape"/></filter><clipPath id="a"><path fill="#fff" d="M0 0h500v500H0z"/></clipPath></defs></svg>